<svg xmlns="http://www.w3.org/2000/svg" viewBox="0 0 512 512" fill="none">
  <defs>
    <!-- Cyan glow filter -->
    <filter id="glow" x="-20%" y="-20%" width="140%" height="140%">
      <feGaussianBlur stdDeviation="6" result="blur"/>
      <feComposite in="SourceGraphic" in2="blur" operator="over"/>
    </filter>
    <filter id="glowStrong" x="-30%" y="-30%" width="160%" height="160%">
      <feGaussianBlur stdDeviation="10" result="blur"/>
      <feMerge>
        <feMergeNode in="blur"/>
        <feMergeNode in="SourceGraphic"/>
      </feMerge>
    </filter>
    <!-- Chromatic aberration -->
    <filter id="chromatic">
      <feOffset in="SourceGraphic" dx="-3" dy="2" result="red"/>
      <feColorMatrix in="red" type="matrix" values="1 0 0 0 0  0 0 0 0 0  0 0 0 0 0  0 0 0 0.4 0" result="redOnly"/>
      <feOffset in="SourceGraphic" dx="3" dy="-1" result="cyan"/>
      <feColorMatrix in="cyan" type="matrix" values="0 0 0 0 0  0 1 0 0 0  0 0 1 0 0  0 0 0 0.4 0" result="cyanOnly"/>
      <feMerge>
        <feMergeNode in="redOnly"/>
        <feMergeNode in="cyanOnly"/>
        <feMergeNode in="SourceGraphic"/>
      </feMerge>
    </filter>
    <clipPath id="hexClip">
      <polygon points="256,26 469,148 469,364 256,486 43,364 43,148"/>
    </clipPath>
  </defs>

  <!-- Outer glow hex -->
  <polygon points="256,26 469,148 469,364 256,486 43,364 43,148"
    fill="none" stroke="#00f0ff" stroke-width="1" opacity="0.15" filter="url(#glowStrong)"/>

  <!-- Main hex background -->
  <polygon points="256,26 469,148 469,364 256,486 43,364 43,148"
    fill="#06080e" fill-opacity="0.95" stroke="#00f0ff" stroke-width="2.5"/>

  <!-- Inner hex frame -->
  <polygon points="256,56 439,162 439,350 256,456 73,350 73,162"
    fill="none" stroke="#00f0ff" stroke-width="0.5" opacity="0.15"/>

  <!-- Grid lines (clipped to hex) -->
  <g clip-path="url(#hexClip)" opacity="0.06" stroke="#00f0ff" stroke-width="0.5">
    <line x1="43" y1="136" x2="469" y2="136"/>
    <line x1="43" y1="160" x2="469" y2="160"/>
    <line x1="43" y1="184" x2="469" y2="184"/>
    <line x1="43" y1="208" x2="469" y2="208"/>
    <line x1="43" y1="232" x2="469" y2="232"/>
    <line x1="43" y1="256" x2="469" y2="256"/>
    <line x1="43" y1="280" x2="469" y2="280"/>
    <line x1="43" y1="304" x2="469" y2="304"/>
    <line x1="43" y1="328" x2="469" y2="328"/>
    <line x1="43" y1="352" x2="469" y2="352"/>
    <line x1="43" y1="376" x2="469" y2="376"/>
  </g>

  <!-- Scan line -->
  <rect x="90" y="253" width="332" height="2.5" fill="#00f0ff" opacity="0.12" clip-path="url(#hexClip)"/>

  <!-- Glitch bars -->
  <g clip-path="url(#hexClip)">
    <rect x="180" y="175" width="40" height="2" fill="#ff007f" opacity="0.2"/>
    <rect x="220" y="230" width="55" height="2" fill="#00f0ff" opacity="0.15"/>
    <rect x="260" y="195" width="30" height="2" fill="#ffb800" opacity="0.15"/>
    <rect x="190" y="285" width="45" height="2" fill="#ff007f" opacity="0.15"/>
    <rect x="270" y="265" width="35" height="2" fill="#00f0ff" opacity="0.18"/>
  </g>

  <!-- Corner brackets -->
  <g stroke="#ff007f" stroke-width="2" opacity="0.7">
    <!-- Top-left -->
    <line x1="120" y1="105" x2="148" y2="105"/>
    <line x1="120" y1="105" x2="120" y2="133"/>
    <!-- Top-right -->
    <line x1="392" y1="105" x2="364" y2="105"/>
    <line x1="392" y1="105" x2="392" y2="133"/>
    <!-- Bottom-left -->
    <line x1="120" y1="407" x2="148" y2="407"/>
    <line x1="120" y1="407" x2="120" y2="379"/>
    <!-- Bottom-right -->
    <line x1="392" y1="407" x2="364" y2="407"/>
    <line x1="392" y1="407" x2="392" y2="379"/>
  </g>

  <!-- Main "C" with chromatic aberration -->
  <g filter="url(#chromatic)">
    <text x="256" y="245" text-anchor="middle" dominant-baseline="central"
      font-family="'Helvetica Neue', Arial, sans-serif" font-weight="800" font-size="200"
      fill="white" letter-spacing="-5">C</text>
  </g>

  <!-- Name -->
  <text x="256" y="355" text-anchor="middle"
    font-family="'JetBrains Mono', 'Courier New', monospace" font-weight="700" font-size="24"
    fill="#00f0ff" letter-spacing="6">CHIHEB</text>
  <text x="256" y="380" text-anchor="middle"
    font-family="'JetBrains Mono', 'Courier New', monospace" font-weight="400" font-size="11"
    fill="#a0a0aa" letter-spacing="4" opacity="0.7">BEN CHEIKH</text>

  <!-- Status decorations -->
  <text x="135" y="398" font-family="'JetBrains Mono', monospace" font-size="9" fill="#00f0ff" opacity="0.3">v2.0</text>
  <text x="355" y="398" font-family="'JetBrains Mono', monospace" font-size="9" fill="#50dc50" opacity="0.3">SYS:OK</text>

  <!-- Hex vertex dots -->
  <g fill="#00f0ff" filter="url(#glow)">
    <circle cx="256" cy="26" r="3.5"/>
    <circle cx="469" cy="148" r="3.5"/>
    <circle cx="469" cy="364" r="3.5"/>
    <circle cx="256" cy="486" r="3.5"/>
    <circle cx="43" cy="364" r="3.5"/>
    <circle cx="43" cy="148" r="3.5"/>
  </g>
</svg>
